<svg width="252" height="32" viewBox="0 0 252 32" fill="none" xmlns="http://www.w3.org/2000/svg">
<path d="M9.06086 4.83664C9.98382 4.83664 10.7311 4.08805 10.7311 3.1664C10.7311 2.24476 9.98251 1.49617 9.06086 1.49617C8.13921 1.49617 7.39062 2.24345 7.39062 3.1664C7.39062 4.08936 8.13921 4.83664 9.06086 4.83664Z" fill="#213147"/>
<path d="M19.915 5.70717C19.915 6.63012 20.6623 7.37872 21.5853 7.37872C22.5082 7.37872 23.2555 6.63012 23.2555 5.70717C23.2555 4.78421 22.5069 4.03693 21.5853 4.03693C20.6636 4.03693 19.915 4.78421 19.915 5.70717Z" fill="#213147"/>
<path d="M3.73216 20.0404C3.73216 19.2852 3.12123 18.6743 2.36609 18.6743C1.61094 18.6743 1 19.2852 1 20.0404C1 20.7955 1.61094 21.4065 2.36609 21.4065C3.12123 21.4065 3.73216 20.7942 3.73216 20.0404Z" fill="#213147"/>
<path d="M8.66948 30.5038C9.97918 30.5038 11.0411 29.4419 11.0411 28.1322C11.0411 26.8225 9.97918 25.7606 8.66948 25.7606C7.35977 25.7606 6.29785 26.8225 6.29785 28.1322C6.29785 29.4419 7.35977 30.5038 8.66948 30.5038Z" fill="#213147"/>
<path d="M20.2544 22.4435C21.6585 22.4435 22.799 21.3043 22.799 19.8989C22.799 18.4934 21.6598 17.3542 20.2544 17.3542C19.5241 17.3542 18.866 17.6623 18.4019 18.1552C17.8827 18.7071 17.2298 18.989 16.4721 18.989H11.1926C10.6197 18.989 10.128 18.8317 9.66001 18.5013C9.38077 18.3033 9.03991 18.188 8.67152 18.188C7.72496 18.188 6.95801 18.9549 6.95801 19.9002C6.95801 20.8454 7.72496 21.6124 8.67152 21.6124C9.03991 21.6124 9.38077 21.4957 9.66001 21.299C10.128 20.9673 10.6197 20.8113 11.1926 20.8113H16.4734C17.2312 20.8113 17.8827 21.0932 18.4032 21.6451C18.8673 22.1381 19.5254 22.4462 20.2557 22.4462L20.2544 22.4435Z" fill="#213147"/>
<path d="M15.0303 28.1318C15.0303 29.0547 15.7789 29.802 16.7005 29.802C17.6222 29.802 18.3707 29.0534 18.3707 28.1318C18.3707 27.2101 17.6235 26.4615 16.7005 26.4615C15.7776 26.4615 15.0303 27.2088 15.0303 28.1318Z" fill="#213147"/>
<path d="M27.1654 21.5703C28.0883 21.5703 28.8356 20.8217 28.8356 19.9C28.8356 18.9784 28.087 18.2298 27.1654 18.2298C26.2437 18.2298 25.4951 18.9784 25.4951 19.9C25.4951 20.8217 26.2437 21.5703 27.1654 21.5703Z" fill="#213147"/>
<path d="M28.4553 9.08037C27.7251 9.08037 27.067 9.38846 26.6029 9.8814C26.0837 10.4333 25.4308 10.7152 24.673 10.7152H18.7643C18.0065 10.7152 17.3536 10.4333 16.8345 9.8814C16.3704 9.38846 15.7122 9.08037 14.982 9.08037C14.2518 9.08037 13.5936 9.38846 13.1295 9.8814C12.6104 10.4333 11.9575 10.7152 11.1997 10.7152H6.85633C6.28341 10.7152 5.79177 10.5592 5.32374 10.2275C5.04449 10.0295 4.70231 9.91286 4.33523 9.91286C3.38998 9.91286 2.62305 10.6798 2.62305 11.6251C2.62305 12.5703 3.38998 13.3386 4.33523 13.3386C4.70362 13.3386 5.04449 13.2219 5.32374 13.0239C5.79046 12.6922 6.28341 12.5362 6.85633 12.5362H11.1997C11.9588 12.5362 12.6104 12.8181 13.1295 13.37C13.5936 13.863 14.2518 14.1711 14.982 14.1711C15.7122 14.1711 16.3704 13.8643 16.8345 13.37C17.3536 12.8181 18.0065 12.5362 18.7643 12.5362H24.673C25.4321 12.5362 26.0837 12.8181 26.6029 13.37C27.067 13.863 27.7251 14.1711 28.4553 14.1711C29.8608 14.1711 31 13.0318 31 11.6264C31 10.221 29.8608 9.08168 28.4553 9.08168V9.08037Z" fill="#213147"/>
<path d="M48.5256 25H44.571L50.5966 7.54545H55.3523L61.3693 25H57.4148L53.0426 11.5341H52.9062L48.5256 25ZM48.2784 18.1392H57.6193V21.0199H48.2784V18.1392ZM63.402 25V11.9091H66.9219V14.1932H67.0582C67.2969 13.3807 67.6974 12.767 68.2599 12.3523C68.8224 11.9318 69.4702 11.7216 70.2031 11.7216C70.3849 11.7216 70.581 11.733 70.7912 11.7557C71.0014 11.7784 71.1861 11.8097 71.3452 11.8494V15.071C71.1747 15.0199 70.9389 14.9744 70.6378 14.9347C70.3366 14.8949 70.0611 14.875 69.8111 14.875C69.277 14.875 68.7997 14.9915 68.3793 15.2244C67.9645 15.4517 67.6349 15.7699 67.3906 16.179C67.152 16.5881 67.0327 17.0597 67.0327 17.5938V25H63.402ZM73.2905 25V7.54545H76.9212V14.108H77.032C77.1911 13.7557 77.4212 13.3977 77.7223 13.0341C78.0291 12.6648 78.4268 12.358 78.9155 12.1136C79.4098 11.8636 80.0234 11.7386 80.7564 11.7386C81.7109 11.7386 82.5916 11.9886 83.3984 12.4886C84.2053 12.983 84.8501 13.7301 85.3331 14.7301C85.8161 15.7244 86.0575 16.9716 86.0575 18.4716C86.0575 19.9318 85.8217 21.1648 85.3501 22.1705C84.8842 23.1705 84.2479 23.929 83.4411 24.446C82.6399 24.9574 81.7422 25.2131 80.7479 25.2131C80.0433 25.2131 79.4439 25.0966 78.9496 24.8636C78.4609 24.6307 78.0604 24.3381 77.7479 23.9858C77.4354 23.6278 77.1967 23.267 77.032 22.9034H76.87V25H73.2905ZM76.8445 18.4545C76.8445 19.233 76.9524 19.9119 77.1683 20.4915C77.3842 21.071 77.6967 21.5227 78.1058 21.8466C78.5149 22.1648 79.0121 22.3239 79.5973 22.3239C80.1882 22.3239 80.6882 22.1619 81.0973 21.8381C81.5064 21.5085 81.8161 21.054 82.0263 20.4744C82.2422 19.8892 82.3501 19.2159 82.3501 18.4545C82.3501 17.6989 82.245 17.0341 82.0348 16.4602C81.8246 15.8864 81.5149 15.4375 81.1058 15.1136C80.6967 14.7898 80.1939 14.6278 79.5973 14.6278C79.0064 14.6278 78.5064 14.7841 78.0973 15.0966C77.6939 15.4091 77.3842 15.8523 77.1683 16.4261C76.9524 17 76.8445 17.6761 76.8445 18.4545ZM88.4801 25V11.9091H92.1108V25H88.4801ZM90.304 10.2216C89.7642 10.2216 89.3011 10.0426 88.9148 9.68466C88.5341 9.32102 88.3438 8.88636 88.3438 8.38068C88.3438 7.88068 88.5341 7.4517 88.9148 7.09375C89.3011 6.73011 89.7642 6.54829 90.304 6.54829C90.8438 6.54829 91.304 6.73011 91.6847 7.09375C92.071 7.4517 92.2642 7.88068 92.2642 8.38068C92.2642 8.88636 92.071 9.32102 91.6847 9.68466C91.304 10.0426 90.8438 10.2216 90.304 10.2216ZM101.982 11.9091V14.6364H94.0987V11.9091H101.982ZM95.8885 8.77273H99.5192V20.9773C99.5192 21.3125 99.5703 21.5739 99.6726 21.7614C99.7749 21.9432 99.9169 22.071 100.099 22.1449C100.286 22.2187 100.502 22.2557 100.746 22.2557C100.917 22.2557 101.087 22.2415 101.258 22.2131C101.428 22.179 101.559 22.1534 101.65 22.1364L102.221 24.8381C102.039 24.8949 101.783 24.9602 101.454 25.0341C101.124 25.1136 100.724 25.1619 100.252 25.179C99.3771 25.2131 98.6101 25.0966 97.951 24.8295C97.2976 24.5625 96.7891 24.1477 96.4254 23.5852C96.0618 23.0227 95.8828 22.3125 95.8885 21.4545V8.77273ZM104.347 25V11.9091H107.867V14.1932H108.004C108.242 13.3807 108.643 12.767 109.205 12.3523C109.768 11.9318 110.415 11.7216 111.148 11.7216C111.33 11.7216 111.526 11.733 111.737 11.7557C111.947 11.7784 112.131 11.8097 112.29 11.8494V15.071C112.12 15.0199 111.884 14.9744 111.583 14.9347C111.282 14.8949 111.006 14.875 110.756 14.875C110.222 14.875 109.745 14.9915 109.325 15.2244C108.91 15.4517 108.58 15.7699 108.336 16.179C108.097 16.5881 107.978 17.0597 107.978 17.5938V25H104.347ZM122.562 19.4261V11.9091H126.193V25H122.707V22.6222H122.571C122.276 23.3892 121.784 24.0057 121.097 24.4716C120.415 24.9375 119.582 25.1705 118.599 25.1705C117.724 25.1705 116.955 24.9716 116.29 24.5739C115.625 24.1761 115.105 23.6108 114.73 22.8778C114.361 22.1449 114.173 21.267 114.168 20.2443V11.9091H117.798V19.5966C117.804 20.3693 118.011 20.9801 118.42 21.429C118.83 21.8778 119.378 22.1023 120.065 22.1023C120.503 22.1023 120.912 22.0028 121.293 21.804C121.673 21.5994 121.98 21.2983 122.213 20.9006C122.452 20.5028 122.568 20.0114 122.562 19.4261ZM129.097 25V11.9091H132.558V14.2188H132.711C132.984 13.4517 133.438 12.8466 134.075 12.4034C134.711 11.9602 135.472 11.7386 136.359 11.7386C137.256 11.7386 138.021 11.9631 138.651 12.4119C139.282 12.8551 139.702 13.4574 139.913 14.2188H140.049C140.316 13.4688 140.799 12.8693 141.498 12.4205C142.202 11.9659 143.035 11.7386 143.995 11.7386C145.217 11.7386 146.208 12.1278 146.969 12.9062C147.737 13.679 148.12 14.7756 148.12 16.196V25H144.498V16.9119C144.498 16.1847 144.305 15.6392 143.918 15.2756C143.532 14.9119 143.049 14.7301 142.469 14.7301C141.81 14.7301 141.296 14.9403 140.927 15.3608C140.558 15.7756 140.373 16.3239 140.373 17.0057V25H136.853V16.8352C136.853 16.1932 136.668 15.6818 136.299 15.3011C135.935 14.9205 135.455 14.7301 134.859 14.7301C134.455 14.7301 134.092 14.8324 133.768 15.0369C133.45 15.2358 133.197 15.517 133.009 15.8807C132.822 16.2386 132.728 16.6591 132.728 17.142V25H129.097ZM171.253 13H169.139C169.014 12.392 168.795 11.858 168.483 11.3977C168.176 10.9375 167.801 10.5511 167.358 10.2386C166.92 9.92045 166.435 9.68182 165.901 9.52273C165.366 9.36364 164.81 9.28409 164.23 9.28409C163.173 9.28409 162.216 9.55114 161.358 10.0852C160.506 10.6193 159.827 11.4062 159.321 12.446C158.821 13.4858 158.571 14.7614 158.571 16.2727C158.571 17.7841 158.821 19.0597 159.321 20.0994C159.827 21.1392 160.506 21.9261 161.358 22.4602C162.216 22.9943 163.173 23.2614 164.23 23.2614C164.81 23.2614 165.366 23.1818 165.901 23.0227C166.435 22.8636 166.92 22.6278 167.358 22.3153C167.801 21.9972 168.176 21.608 168.483 21.1477C168.795 20.6818 169.014 20.1477 169.139 19.5455H171.253C171.094 20.4375 170.804 21.2358 170.384 21.9403C169.963 22.6449 169.44 23.2443 168.815 23.7386C168.19 24.2273 167.489 24.5994 166.71 24.8551C165.938 25.1108 165.111 25.2386 164.23 25.2386C162.741 25.2386 161.418 24.875 160.259 24.1477C159.099 23.4205 158.188 22.3864 157.523 21.0455C156.858 19.7045 156.526 18.1136 156.526 16.2727C156.526 14.4318 156.858 12.8409 157.523 11.5C158.188 10.1591 159.099 9.125 160.259 8.39773C161.418 7.67045 162.741 7.30682 164.23 7.30682C165.111 7.30682 165.938 7.43466 166.71 7.69034C167.489 7.94602 168.19 8.32102 168.815 8.81534C169.44 9.30398 169.963 9.90057 170.384 10.6051C170.804 11.304 171.094 12.1023 171.253 13ZM179.714 25.2727C178.532 25.2727 177.495 24.9915 176.603 24.429C175.717 23.8665 175.023 23.0795 174.523 22.0682C174.029 21.0568 173.782 19.875 173.782 18.5227C173.782 17.1591 174.029 15.9687 174.523 14.9517C175.023 13.9347 175.717 13.1449 176.603 12.5824C177.495 12.0199 178.532 11.7386 179.714 11.7386C180.896 11.7386 181.93 12.0199 182.816 12.5824C183.708 13.1449 184.401 13.9347 184.896 14.9517C185.396 15.9687 185.646 17.1591 185.646 18.5227C185.646 19.875 185.396 21.0568 184.896 22.0682C184.401 23.0795 183.708 23.8665 182.816 24.429C181.93 24.9915 180.896 25.2727 179.714 25.2727ZM179.714 23.4659C180.612 23.4659 181.35 23.2358 181.93 22.7756C182.509 22.3153 182.938 21.7102 183.217 20.9602C183.495 20.2102 183.634 19.3977 183.634 18.5227C183.634 17.6477 183.495 16.8324 183.217 16.0767C182.938 15.321 182.509 14.7102 181.93 14.2443C181.35 13.7784 180.612 13.5455 179.714 13.5455C178.816 13.5455 178.077 13.7784 177.498 14.2443C176.918 14.7102 176.489 15.321 176.211 16.0767C175.933 16.8324 175.793 17.6477 175.793 18.5227C175.793 19.3977 175.933 20.2102 176.211 20.9602C176.489 21.7102 176.918 22.3153 177.498 22.7756C178.077 23.2358 178.816 23.4659 179.714 23.4659ZM190.727 17.125V25H188.716V11.9091H190.659V13.9545H190.83C191.136 13.2898 191.602 12.7557 192.227 12.3523C192.852 11.9432 193.659 11.7386 194.648 11.7386C195.534 11.7386 196.31 11.9205 196.974 12.2841C197.639 12.642 198.156 13.1875 198.526 13.9205C198.895 14.6477 199.08 15.5682 199.08 16.6818V25H197.068V16.8182C197.068 15.7898 196.801 14.9886 196.267 14.4148C195.733 13.8352 195 13.5455 194.068 13.5455C193.426 13.5455 192.852 13.6847 192.347 13.9631C191.847 14.2415 191.452 14.6477 191.162 15.1818C190.872 15.7159 190.727 16.3636 190.727 17.125ZM204.766 17.125V25H202.755V11.9091H204.698V13.9545H204.869C205.175 13.2898 205.641 12.7557 206.266 12.3523C206.891 11.9432 207.698 11.7386 208.687 11.7386C209.573 11.7386 210.349 11.9205 211.013 12.2841C211.678 12.642 212.195 13.1875 212.565 13.9205C212.934 14.6477 213.119 15.5682 213.119 16.6818V25H211.107V16.8182C211.107 15.7898 210.84 14.9886 210.306 14.4148C209.772 13.8352 209.039 13.5455 208.107 13.5455C207.465 13.5455 206.891 13.6847 206.386 13.9631C205.886 14.2415 205.491 14.6477 205.201 15.1818C204.911 15.7159 204.766 16.3636 204.766 17.125ZM222.283 25.2727C221.021 25.2727 219.933 24.9943 219.018 24.4375C218.109 23.875 217.408 23.0909 216.913 22.0852C216.425 21.0739 216.18 19.8977 216.18 18.5568C216.18 17.2159 216.425 16.0341 216.913 15.0114C217.408 13.983 218.095 13.1818 218.976 12.608C219.862 12.0284 220.896 11.7386 222.078 11.7386C222.76 11.7386 223.433 11.8523 224.098 12.0795C224.763 12.3068 225.368 12.6761 225.913 13.1875C226.459 13.6932 226.893 14.3636 227.217 15.1989C227.541 16.0341 227.703 17.0625 227.703 18.2841V19.1364H217.612V17.3977H225.658C225.658 16.6591 225.51 16 225.214 15.4205C224.925 14.8409 224.51 14.3835 223.97 14.0483C223.436 13.7131 222.805 13.5455 222.078 13.5455C221.277 13.5455 220.584 13.7443 219.999 14.142C219.419 14.5341 218.973 15.0455 218.661 15.6761C218.348 16.3068 218.192 16.983 218.192 17.7045V18.8636C218.192 19.8523 218.362 20.6903 218.703 21.3778C219.05 22.0597 219.53 22.5795 220.143 22.9375C220.757 23.2898 221.47 23.4659 222.283 23.4659C222.811 23.4659 223.288 23.392 223.714 23.2443C224.146 23.0909 224.518 22.8636 224.831 22.5625C225.143 22.2557 225.385 21.875 225.555 21.4205L227.499 21.9659C227.294 22.625 226.95 23.2045 226.467 23.7045C225.984 24.1989 225.388 24.5852 224.678 24.8636C223.967 25.1364 223.169 25.2727 222.283 25.2727ZM236.081 25.2727C234.854 25.2727 233.797 24.983 232.911 24.4034C232.024 23.8239 231.342 23.0256 230.865 22.0085C230.388 20.9915 230.149 19.8295 230.149 18.5227C230.149 17.1932 230.393 16.0199 230.882 15.0028C231.376 13.9801 232.064 13.1818 232.945 12.608C233.831 12.0284 234.865 11.7386 236.047 11.7386C236.967 11.7386 237.797 11.9091 238.536 12.25C239.274 12.5909 239.879 13.0682 240.351 13.6818C240.822 14.2955 241.115 15.0114 241.229 15.8295H239.217C239.064 15.233 238.723 14.7045 238.195 14.2443C237.672 13.7784 236.967 13.5455 236.081 13.5455C235.297 13.5455 234.609 13.75 234.018 14.1591C233.433 14.5625 232.976 15.1335 232.646 15.8722C232.322 16.6051 232.161 17.4659 232.161 18.4545C232.161 19.4659 232.32 20.3466 232.638 21.0966C232.962 21.8466 233.416 22.429 234.001 22.8438C234.592 23.2585 235.286 23.4659 236.081 23.4659C236.604 23.4659 237.078 23.375 237.504 23.1932C237.93 23.0114 238.291 22.75 238.587 22.4091C238.882 22.0682 239.092 21.6591 239.217 21.1818H241.229C241.115 21.9545 240.834 22.6506 240.385 23.2699C239.942 23.8835 239.354 24.3722 238.621 24.7358C237.893 25.0938 237.047 25.2727 236.081 25.2727ZM249.862 11.9091V13.6136H243.078V11.9091H249.862ZM245.055 8.77273H247.067V21.25C247.067 21.8182 247.149 22.2443 247.314 22.5284C247.484 22.8068 247.7 22.9943 247.962 23.0909C248.229 23.1818 248.51 23.2273 248.805 23.2273C249.027 23.2273 249.209 23.2159 249.351 23.1932C249.493 23.1648 249.607 23.142 249.692 23.125L250.101 24.9318C249.964 24.983 249.774 25.0341 249.53 25.0852C249.286 25.142 248.976 25.1705 248.601 25.1705C248.033 25.1705 247.476 25.0483 246.93 24.804C246.391 24.5597 245.942 24.1875 245.584 23.6875C245.232 23.1875 245.055 22.5568 245.055 21.7955V8.77273Z" fill="#213147"/>
</svg>
